<?xml version="1.0" encoding="utf-8"?>
<!-- Generator: Adobe Illustrator 24.1.0, SVG Export Plug-In . SVG Version: 6.00 Build 0)  -->
<svg version="1.1" id="Layer_1" xmlns="http://www.w3.org/2000/svg" xmlns:xlink="http://www.w3.org/1999/xlink" x="0px" y="0px"
	 viewBox="0 0 850.4 850.4" style="enable-background:new 0 0 850.4 850.4;" xml:space="preserve">
<style type="text/css">
	.st0{fill:#F0F0F0;}
</style>
<g>
	<g>
		<path d="M244.4,696.1c-37.1,0-67.6-4.2-90.5-12.6c-23.3-8.5-41.5-19.8-54.2-33.7c-12.7-14-21.3-30.1-25.3-47.9
			c-3.9-17-5.8-34.4-5.8-51.8V296.4H16.5v-24.9h202.2v24.9h-51.6V540c0,17.2,0.8,34.2,2.5,50.5c1.6,15.6,5.3,29.7,11,41.9
			c5.5,11.8,13.6,21,24.5,28.3c10.7,7.1,25.6,10.7,44.4,10.7c19.2,0,35.3-2.2,48-6.6c12.6-4.3,23.1-10,31.2-16.9
			s14.4-14.7,18.7-23.2c4.5-8.9,7.9-17.9,10-26.7c2.1-9,3.4-17.5,3.7-25.4c0.4-8.5,0.6-15.3,0.6-20.7V296.4h-51.1v-24.9h129.3v24.9
			h-52.2v254.8c0,6.1-0.2,13.6-0.6,23.1c-0.4,9.7-2,20-4.8,30.7s-7,21.5-12.5,32.1c-5.8,11.1-14.3,21.2-25.3,30
			c-10.8,8.6-24.6,15.7-40.8,21.1C287.7,693.4,267.7,696.1,244.4,696.1z M291,243.1c-12,0-22.6-4.4-31.3-13.2
			c-8.7-8.7-13.1-19.2-13.1-31.3c0-12,4.4-22.5,13.2-31.3c8.7-8.7,19.2-13.2,31.3-13.2c12,0,22.5,4.4,31.3,13.2
			c8.7,8.7,13.2,19.3,13.2,31.3s-4.4,22.5-13.2,31.3C313.6,238.7,303.1,243.1,291,243.1z M193.4,243.1c-12,0-22.6-4.4-31.3-13.2
			c-8.7-8.7-13.2-19.2-13.2-31.3c0-12,4.4-22.5,13.2-31.3c8.7-8.7,19.2-13.2,31.3-13.2c12,0,22.5,4.4,31.3,13.2
			c8.7,8.7,13.2,19.3,13.2,31.3s-4.4,22.5-13.2,31.3C215.9,238.7,205.4,243.1,193.4,243.1z"/>
		<path class="st0" d="M291,162.8c9.7,0,18.1,3.6,25.3,10.7c7.1,7.1,10.7,15.5,10.7,25.3c0,9.7-3.6,18.2-10.7,25.3
			s-15.5,10.7-25.3,10.7c-9.7,0-18.2-3.6-25.3-10.7c-7.1-7.1-10.7-15.5-10.7-25.3c0-9.7,3.6-18.1,10.7-25.3
			C272.9,166.3,281.3,162.8,291,162.8 M193.4,162.8c9.7,0,18.1,3.6,25.3,10.7c7.1,7.1,10.7,15.5,10.7,25.3c0,9.7-3.6,18.2-10.7,25.3
			c-7.1,7.1-15.5,10.7-25.3,10.7c-9.7,0-18.2-3.6-25.3-10.7c-7.1-7.1-10.7-15.5-10.7-25.3c0-9.7,3.6-18.1,10.7-25.3
			C175.2,166.3,183.6,162.8,193.4,162.8 M431.4,280.1v7.9h-52.2v263.3c0,6-0.2,13.6-0.6,22.7c-0.4,9.2-1.9,18.8-4.5,28.9
			c-2.6,10.1-6.6,20.2-11.8,30.3c-5.2,10.1-12.9,19.2-23,27.2c-10.1,8.1-22.8,14.6-38.2,19.6c-15.3,5.1-34.2,7.6-56.7,7.6
			c-36.3,0-65.5-4-87.6-12.1c-22.1-8-39-18.5-50.8-31.4S86.4,616.5,82.7,600c-3.7-16.5-5.6-33.1-5.6-50V287.9H25V280h185.2v7.9
			h-51.6v252c0,17.6,0.8,34.7,2.5,51.4s5.6,31.5,11.8,44.6s15.3,23.7,27.5,31.7c12.2,8.1,28.5,12.1,49.1,12.1
			c20.2,0,37.1-2.3,50.8-7c13.7-4.7,25-10.8,34-18.5s15.9-16.3,20.8-25.8s8.4-19.1,10.7-28.6c2.2-9.5,3.6-18.5,3.9-26.9
			c0.4-8.4,0.6-15.4,0.6-21.1V287.9h-51.1V280h112.2 M291,145.8c-14.2,0-27.1,5.4-37.3,15.6c-5,5-8.9,10.7-11.6,16.9
			c-2.6-6.2-6.5-11.9-11.5-16.9c-10.3-10.2-23.1-15.7-37.3-15.7s-27.1,5.4-37.3,15.6c-10.2,10.2-15.6,23.1-15.6,37.3
			s5.4,27.1,15.7,37.3c10.2,10.2,23.1,15.6,37.3,15.6s27-5.4,37.3-15.6c5.1-5.1,8.9-10.8,11.6-16.9c2.6,6.2,6.5,11.9,11.6,16.9
			c10.2,10.2,23.1,15.6,37.3,15.6c14.2,0,27-5.4,37.3-15.6c10.2-10.2,15.6-23.1,15.6-37.3c0-14.1-5.4-27-15.6-37.3
			C318.1,151.2,305.2,145.8,291,145.8L291,145.8z M448.4,263.1h-17H319.1h-17v17v7.9v17h17h34.1v246.8c0,5.2-0.2,11.9-0.5,20.3
			c-0.3,7.3-1.5,15.3-3.5,23.8c-1.9,8.1-5,16.5-9.3,24.8c-3.8,7.5-9.4,14.4-16.7,20.6c-7.3,6.2-16.9,11.4-28.4,15.4
			c-11.8,4-27.1,6.1-45.3,6.1c-17.1,0-30.5-3.1-39.7-9.2c-9.6-6.4-16.7-14.5-21.5-24.8c-5.3-11.3-8.8-24.4-10.3-39.1
			c-1.6-16-2.4-32.7-2.4-49.7V305h34.6h17v-17v-7.9v-17h-17H25H8v17v7.9v17h17h35.2v245.2c0,18,2,36.1,6,53.7
			c4.4,19.3,13.6,36.7,27.3,51.8c13.6,14.9,33,27,57.5,35.9c23.8,8.7,55.3,13.1,93.4,13.1c24.2,0,45-2.8,62-8.4
			c17.2-5.7,31.8-13.2,43.5-22.5c11.9-9.5,21.2-20.5,27.5-32.7c5.8-11.2,10.2-22.6,13.2-33.9c2.9-11.2,4.6-22.2,5-32.5
			c0.4-9.6,0.6-17.3,0.6-23.4V304.9h35.2h17v-17V280L448.4,263.1L448.4,263.1z"/>
	</g>
	<g>
		<path d="M461,688.3v-24.9h51.6v-367H461v-24.9h201.7v24.9h-51.6v367h84.1c11.4,0,23.1-1.9,34.7-5.8c11.4-3.7,22.3-10.1,32.5-18.8
			c10.3-8.9,19.7-20.6,28-34.9c8.3-14.3,14.9-32.1,19.5-52.9l1.5-6.6H834v143.9L461,688.3L461,688.3z"/>
		<path class="st0" d="M654.2,280.1v7.9h-51.6v384h92.6c12.3,0,24.8-2.1,37.3-6.2c12.5-4.1,24.3-10.9,35.4-20.5
			c11-9.5,21-21.9,29.8-37c8.8-15.2,15.6-33.6,20.5-55.3h7.3v126.9h-356V672h51.6V288h-51.6v-7.9H654.2 M671.2,263.1h-17H469.5h-17
			v17v7.9v17h17h34.6v350h-34.6h-17v17v7.9v17h17h355.9h17v-17v-127v-17h-17h-7.3h-13.6l-3,13.3c-4.5,19.9-10.7,36.9-18.6,50.5
			c-7.8,13.4-16.6,24.5-26.2,32.7c-9.3,8-19.2,13.8-29.5,17.2c-10.8,3.5-21.5,5.3-32,5.3h-75.6v-350h34.6h17v-17V280L671.2,263.1
			L671.2,263.1z"/>
	</g>
</g>
</svg>
