<?xml version="1.0" encoding="utf-8"?>
<!-- Generator: Adobe Illustrator 24.1.0, SVG Export Plug-In . SVG Version: 6.00 Build 0)  -->
<svg version="1.1" id="Layer_1" xmlns="http://www.w3.org/2000/svg" xmlns:xlink="http://www.w3.org/1999/xlink" x="0px" y="0px"
	 viewBox="0 0 166 93.5" style="enable-background:new 0 0 166 93.5;" xml:space="preserve">
<style type="text/css">
	.st0{enable-background:new    ;}
	.st1{fill:#FFFFFF;}
	.st2{fill:#979797;}
</style>
<g>
	<rect width="166" height="97"/>
	<g>
		<g>
			<g>
				<g class="st0">
					<path class="st1" d="M12.6,27.5h7.9v0.3h-2.7v11.1c0,0.9,0.1,1.7,0.3,2.3c0.2,0.6,0.4,1.2,0.8,1.6s0.8,0.7,1.3,0.8
						s1,0.2,1.7,0.2c0.9,0,1.7-0.2,2.4-0.4c0.7-0.2,1.3-0.7,1.8-1.3c0.2-0.2,0.3-0.4,0.4-0.6s0.3-0.4,0.3-0.7c0.1-0.2,0.2-0.6,0.2-1
						c0.1-0.4,0.1-0.8,0.1-1.4V27.7h-2.7v-0.2h5.7v0.3h-2.7V39c0,0.7-0.1,1.2-0.3,1.7c-0.2,0.5-0.4,1.1-0.9,1.6s-1,1-1.8,1.3
						s-1.8,0.5-3.1,0.5c-1.9,0-3.5-0.5-4.5-1.4c-1-0.8-1.6-2.2-1.6-4.1V27.8h-2.7V27.5z M18.3,24.3c0-0.3,0.1-0.6,0.3-0.7
						c0.3-0.2,0.5-0.3,0.8-0.3c0.3,0,0.6,0.1,0.8,0.3c0.2,0.2,0.3,0.5,0.3,0.7s-0.1,0.6-0.3,0.7c-0.3,0.2-0.4,0.3-0.8,0.3
						s-0.5-0.1-0.8-0.3C18.5,24.9,18.3,24.7,18.3,24.3z M22.9,24.3c0-0.3,0.1-0.6,0.3-0.7c0.3-0.2,0.5-0.3,0.8-0.3s0.6,0.1,0.8,0.3
						c0.2,0.2,0.3,0.5,0.3,0.7s-0.1,0.6-0.3,0.7s-0.4,0.3-0.8,0.3s-0.6-0.1-0.8-0.3C23.1,24.9,22.9,24.7,22.9,24.3z"/>
					<path class="st1" d="M31.2,43.6h2.7V27.8h-2.7v-0.3h5.2L44.7,40h0.1V27.8h-2.7v-0.3h5.8v0.3h-2.7v16.4h-0.5L34.3,28.8h-0.1
						v14.8h2.7v0.3h-5.8C31.2,43.9,31.2,43.6,31.2,43.6z"/>
					<path class="st1" d="M48,27.5h7.6v0.3h-2.8l5.4,13.3l5.3-13.3h-2.7v-0.3h5.2v0.3h-2.2l-6.5,16.4h-0.6l-6.5-16.4H48V27.5z"/>
					<path class="st1" d="M66.7,43.6h2.7V27.8h-2.7v-0.3h14v3.9h-0.3c-0.2-0.6-0.4-1.2-0.7-1.6c-0.3-0.5-0.5-0.8-0.9-1.2
						s-0.8-0.6-1.2-0.7s-1-0.2-1.7-0.2h-4v7.1h1.6c0.5,0,1-0.1,1.4-0.2c0.3-0.1,0.7-0.2,1-0.5c0.3-0.2,0.5-0.6,0.7-1.1
						c0.2-0.4,0.3-1,0.5-1.7h0.3v7.1H77c-0.1-0.4-0.3-0.9-0.3-1.3c-0.1-0.4-0.3-0.8-0.5-1.1s-0.5-0.6-0.9-0.7
						c-0.3-0.2-0.9-0.2-1.4-0.2h-2v8.3h4.6c0.9,0,1.7-0.2,2.3-0.6c0.6-0.3,1-0.8,1.5-1.3c0.3-0.5,0.6-1,0.9-1.6
						c0.2-0.6,0.3-1,0.3-1.3h0.3v5h-15V43.6z"/>
					<path class="st1" d="M83.9,43.6h2.7V27.8h-2.7v-0.3h4.6c0.2,0,0.3,0,0.6,0c0.2,0,0.3,0,0.6,0c0.2,0,0.3,0,0.6,0s0.3,0,0.6,0
						c1,0,1.8,0.1,2.5,0.2c0.7,0.1,1.4,0.4,2.1,0.8c0.6,0.4,1,0.9,1.2,1.4c0.3,0.5,0.3,1,0.3,1.5c0,0.2-0.1,0.5-0.2,0.9
						c-0.1,0.3-0.3,0.7-0.6,1.1c-0.3,0.4-0.7,0.7-1.3,1.1c-0.6,0.3-1.3,0.5-2.3,0.7v0.1c0.3,0,0.6,0.1,1,0.2
						c0.4,0.1,0.9,0.2,1.4,0.4c0.5,0.2,0.9,0.5,1.3,0.8c0.3,0.3,0.7,0.7,0.9,1.3c0.1,0.3,0.2,0.7,0.2,1.1c0,0.4,0.1,0.8,0.1,1.2
						s0.1,0.8,0.1,1.2c0,0.4,0.1,0.7,0.2,1c0.1,0.4,0.3,0.7,0.4,1.1c0.2,0.3,0.5,0.5,1,0.5c0.2,0,0.4,0,0.7-0.1
						c0.3-0.1,0.4-0.2,0.6-0.3l0.3,0.2c-0.1,0.1-0.2,0.2-0.3,0.2c-0.1,0.1-0.3,0.2-0.4,0.2c-0.2,0.1-0.3,0.1-0.6,0.2
						c-0.3,0.1-0.5,0.1-0.9,0.1c-0.6,0-1.2-0.1-1.7-0.2c-0.4-0.2-0.8-0.4-1-0.7c-0.3-0.3-0.4-0.7-0.6-1.1c-0.2-0.4-0.2-1-0.3-1.6
						l-0.2-2.1c-0.1-0.7-0.3-1.4-0.5-1.8c-0.3-0.4-0.5-0.7-0.9-0.9s-0.7-0.3-1-0.3c-0.3,0-0.7-0.1-1-0.1h-2.4v8.3H92v0.3h-7.9v-0.7
						C84.1,43.6,83.9,43.6,83.9,43.6z M89.1,34.9h2.3c0.4,0,0.9-0.1,1.2-0.2c0.3-0.1,0.7-0.3,1-0.6c0.3-0.2,0.4-0.7,0.6-1.1
						c0.2-0.5,0.3-1.1,0.3-1.7c0-0.8-0.1-1.5-0.3-1.9c-0.3-0.5-0.5-0.8-0.9-1.1C92.8,28.2,92.5,28,92,28c-0.4-0.1-0.9-0.1-1.3-0.1
						c-0.3,0-0.6,0-0.9,0c-0.3,0-0.5,0-0.8,0.1V34.9z"/>
				</g>
			</g>
		</g>
	</g>
	<g>
		<g>
			<g>
				<g class="st0">
					<path class="st1" d="M67,64.9h2.7V49.2H67v-0.3h7.9v0.3h-2.7v15.8h4.4c1.4,0,2.5-0.4,3.4-1.2c0.8-0.8,1.4-2,1.7-3.5h0.3v5H67
						V64.9z"/>
					<path class="st1" d="M83.7,64.9h2.7V49.2h-2.7v-0.3h14v3.9h-0.3c-0.2-0.6-0.4-1.2-0.7-1.6c-0.3-0.4-0.5-0.8-0.9-1.2
						c-0.3-0.3-0.8-0.6-1.2-0.7c-0.4-0.2-1-0.2-1.7-0.2h-4v7.1h1.6c0.5,0,1-0.1,1.4-0.2c0.3-0.1,0.7-0.2,1-0.5
						c0.3-0.2,0.5-0.6,0.7-1.1c0.2-0.5,0.3-1,0.5-1.7h0.3v7.1H94c-0.1-0.4-0.3-0.9-0.3-1.3c-0.1-0.4-0.3-0.8-0.5-1.1
						c-0.3-0.2-0.5-0.6-0.9-0.7s-0.9-0.2-1.4-0.2h-2v8.3h4.6c0.9,0,1.7-0.2,2.3-0.6c0.6-0.4,1-0.8,1.5-1.3c0.3-0.5,0.6-1,0.9-1.6
						c0.2-0.6,0.3-1,0.3-1.3h0.3v5h-15V64.9z"/>
					<path class="st1" d="M119.1,59.3h-1.9v5.3h-0.3c-0.2-0.2-0.3-0.2-0.4-0.3c-0.1-0.1-0.3-0.1-0.5-0.1c-0.3,0-0.6,0.1-0.9,0.2
						c-0.3,0.2-0.6,0.3-1,0.5c-0.4,0.2-0.9,0.3-1.4,0.5c-0.5,0.2-1.2,0.2-1.9,0.2c-1.1,0-2.2-0.2-3.1-0.6c-0.9-0.3-1.7-0.9-2.6-1.7
						c-0.8-0.7-1.5-1.6-2-2.7c-0.5-1.1-0.8-2.2-0.8-3.5c0-0.9,0.1-1.6,0.3-2.4c0.2-0.7,0.4-1.3,0.8-1.8c0.3-0.5,0.6-1,1-1.3
						c0.3-0.3,0.6-0.7,0.8-0.8c0.7-0.7,1.6-1.2,2.5-1.6c1-0.4,2-0.7,3.2-0.7c0.6,0,1.1,0.1,1.6,0.2s0.8,0.2,1,0.3
						c0.3,0.1,0.5,0.2,0.8,0.3c0.3,0.1,0.5,0.2,0.8,0.2c0.3,0,0.5-0.1,0.7-0.2c0.2-0.1,0.3-0.2,0.4-0.3h0.3v4.6h-0.3
						c-0.1-0.4-0.2-0.9-0.3-1.4c-0.2-0.5-0.5-1.1-0.9-1.6c-0.3-0.5-1-0.9-1.6-1.2c-0.7-0.3-1.5-0.5-2.5-0.5c-1.2,0-2.2,0.2-3,0.7
						c-0.8,0.5-1.3,1.2-1.7,1.9c-0.4,0.8-0.7,1.6-0.9,2.7c-0.2,1-0.2,2-0.2,3c0,0.7,0,1.4,0.1,2.1c0.1,0.7,0.2,1.3,0.3,2
						c0.2,0.6,0.3,1.2,0.6,1.7c0.3,0.5,0.6,1,1,1.3c0.5,0.4,1,0.7,1.5,0.9c0.5,0.2,1.2,0.2,2,0.2c0.5,0,1-0.1,1.5-0.2
						c0.5-0.2,1-0.4,1.4-0.7c0.4-0.3,0.7-0.7,1-1.2c0.3-0.5,0.3-1.1,0.3-1.7v-2h-3.1v-0.3h7.4v0.1C119.3,59.3,119.1,59.3,119.1,59.3
						z"/>
					<path class="st1" d="M119.6,64.9h2.2l6.6-16.4h0.6l6.6,16.4h2.2v0.3h-7.5v-0.3h2.7l-2.5-6.4h-5.7l-2.5,6.4h2.7v0.3h-5.2v-0.3
						H119.6z M127.6,51.5l-2.7,6.7h5.4L127.6,51.5z"/>
					<path class="st1" d="M138.5,64.9h2.7V49.2h-2.7v-0.3h7.9v0.3h-2.7v15.8h4.4c1.4,0,2.5-0.4,3.4-1.2c0.8-0.8,1.4-2,1.7-3.5h0.3v5
						h-14.9L138.5,64.9L138.5,64.9z"/>
				</g>
			</g>
		</g>
	</g>
	<g>
		<rect x="104.3" y="34.4" class="st2" width="49.2" height="1.6"/>
	</g>
	<g>
		<rect x="12.6" y="56.1" class="st2" width="49.7" height="1.6"/>
	</g>
</g>
</svg>
